<?xml version="1.0" encoding="UTF-8"?>
<!DOCTYPE svg PUBLIC "-//W3C//DTD SVG 1.1//EN" "http://www.w3.org/Graphics/SVG/1.1/DTD/svg11.dtd">
<!-- Creator: CorelDRAW 2017 -->
<svg xmlns="http://www.w3.org/2000/svg" xml:space="preserve" width="2.6246mm" height="4.0638mm" version="1.1" style="shape-rendering:geometricPrecision; text-rendering:geometricPrecision; image-rendering:optimizeQuality; fill-rule:evenodd; clip-rule:evenodd"
viewBox="0 0 262.46 406.38"
 xmlns:xlink="http://www.w3.org/1999/xlink">
 <defs>
  <style type="text/css">
   <![CDATA[
    .fil0 {fill:#050C9C}
   ]]>
  </style>
 </defs>
 <g id="Capa_x0020_1">
  <metadata id="CorelCorpID_0Corel-Layer"/>
  <g id="aluraLogo.svg">
   <g filter="url(#filter0_d_49_478)">
    <path class="fil0" d="M197.72 200.25c-0.37,2.36 -1.27,4.6 -2.62,6.56 -1.36,1.96 -3.14,3.59 -5.22,4.76 -4.18,2.7 -7.83,4.05 -11.53,5.4 -7.88,2.72 -16.18,5.44 -24.95,8.6 -9.25,3.15 -17.54,6.31 -24.95,8.6 -9.22,3.15 -18,5.87 -26.33,9.03 -6.28,2.68 -12.17,6.18 -17.53,10.4 -4.98,4.52 -9.33,9.69 -12.93,15.37 -3.7,6.31 -6.03,14.46 -6.03,23.95 0,19 4.62,33.45 13.87,42.49 9.23,9.51 26.34,14.01 51.7,14.01 25.86,0 43.4,-4.96 52.67,-14.91 9.21,-9.94 13.83,-23.94 13.83,-42.01l0 -92.25 0.02 0zm-66.5 -200.26c45.28,0 78.51,8.6 99.74,26.23 21.24,17.2 31.87,39.31 31.87,65.52l0 223.34c0,9.03 -1.83,18.98 -5.06,29.82 -3.26,10.88 -9.7,20.81 -19.87,29.82 -9.69,9.08 -23.07,16.76 -40.16,22.64 -17.09,5.87 -39.25,9.03 -66.5,9.03 -27.21,0 -49.41,-3.16 -66.48,-9.03 -17.06,-5.88 -30.47,-13.56 -40.16,-22.64 -9.01,-8.12 -15.83,-18.38 -19.85,-29.82 -3.26,-10.82 -5.12,-20.77 -5.12,-29.8l0 -35.7c0,-19 5.08,-36.64 15.24,-52.03 10.17,-15.8 24.47,-26.64 42.95,-33.43 9.23,-3.16 19.85,-6.31 31.84,-10.38 12.02,-4.1 23.08,-8.17 34.18,-11.76 11.1,-3.63 20.79,-7.27 29.08,-10.45 5.01,-2 10.09,-3.8 15.24,-5.4l8.31 -4.07c3.27,-1.8 6.47,-4.52 9.71,-8.14 3.22,-3.59 5.99,-7.66 8.32,-12.19 2.46,-4.9 3.72,-10.31 3.7,-15.8l0 -14.48c0.03,-5.3 -1.08,-10.55 -3.27,-15.39 -1.83,-5.44 -5.53,-10.4 -10.6,-14.91 -5.07,-4.52 -12.01,-8.14 -20.31,-10.88 -8.31,-2.68 -19.37,-4.05 -31.87,-4.05 -25.85,0 -42.94,5.01 -52.17,15.37 -7.84,9.05 -12.45,20.35 -13.37,33 0,2.72 -2.3,4.53 -5.09,4.53l-56.31 0.91c-1.34,0.01 -2.63,-0.52 -3.58,-1.45 -0.95,-0.94 -1.5,-2.22 -1.52,-3.56l0 -13.06c0,-12.69 2.33,-24.44 7.4,-35.74 5.1,-11.32 12.96,-20.79 23.56,-28.95 10.62,-8.12 24.49,-14.89 41.09,-19.42 16.18,-5.44 36.03,-7.68 59.1,-7.68l-0.04 0z"/>
   </g>
  </g>
 </g>
</svg>
